<mxfile host="app.diagrams.net" modified="2023-04-27T07:49:17.474Z" agent="Mozilla/5.0 (Windows NT 10.0; Win64; x64) AppleWebKit/537.36 (KHTML, like Gecko) Chrome/112.0.0.0 Safari/537.36" etag="wEFZjf1WSfncVrNZuek2" version="21.2.1" type="device">
  <diagram name="Page-1" id="d_l0MLnyBSYmk9_Ft9FG">
    <mxGraphModel dx="1434" dy="764" grid="1" gridSize="10" guides="1" tooltips="1" connect="1" arrows="1" fold="1" page="1" pageScale="1" pageWidth="827" pageHeight="1169" math="0" shadow="0">
      <root>
        <mxCell id="0" />
        <mxCell id="1" parent="0" />
        <mxCell id="FaSnawcas1gH10pwd9XZ-3" value="(costomer, order)" style="verticalLabelPosition=bottom;verticalAlign=top;html=1;strokeWidth=2;shape=mxgraph.arrows2.arrow;dy=0.6;dx=40;notch=5;" vertex="1" parent="1">
          <mxGeometry x="130" y="280" width="130" height="70" as="geometry" />
        </mxCell>
        <mxCell id="FaSnawcas1gH10pwd9XZ-9" value="isVip" style="strokeWidth=2;html=1;shape=mxgraph.flowchart.decision;whiteSpace=wrap;" vertex="1" parent="1">
          <mxGeometry x="260" y="265" width="100" height="100" as="geometry" />
        </mxCell>
        <mxCell id="FaSnawcas1gH10pwd9XZ-10" value="YES" style="endArrow=classic;html=1;rounded=0;" edge="1" parent="1">
          <mxGeometry width="50" height="50" relative="1" as="geometry">
            <mxPoint x="310" y="265" as="sourcePoint" />
            <mxPoint x="310" y="180" as="targetPoint" />
          </mxGeometry>
        </mxCell>
        <mxCell id="FaSnawcas1gH10pwd9XZ-11" value="NO" style="endArrow=classic;html=1;rounded=0;exitX=1;exitY=0.5;exitDx=0;exitDy=0;exitPerimeter=0;" edge="1" parent="1" source="FaSnawcas1gH10pwd9XZ-9">
          <mxGeometry width="50" height="50" relative="1" as="geometry">
            <mxPoint x="330" y="465" as="sourcePoint" />
            <mxPoint x="440" y="315" as="targetPoint" />
          </mxGeometry>
        </mxCell>
        <mxCell id="FaSnawcas1gH10pwd9XZ-40" value="YES" style="edgeStyle=orthogonalEdgeStyle;rounded=0;orthogonalLoop=1;jettySize=auto;html=1;" edge="1" parent="1" source="FaSnawcas1gH10pwd9XZ-12" target="FaSnawcas1gH10pwd9XZ-39">
          <mxGeometry relative="1" as="geometry" />
        </mxCell>
        <mxCell id="FaSnawcas1gH10pwd9XZ-12" value="age &amp;lt; 18" style="strokeWidth=2;html=1;shape=mxgraph.flowchart.decision;whiteSpace=wrap;" vertex="1" parent="1">
          <mxGeometry x="440" y="265" width="100" height="100" as="geometry" />
        </mxCell>
        <mxCell id="FaSnawcas1gH10pwd9XZ-13" value="NO" style="endArrow=classic;html=1;rounded=0;entryX=0;entryY=0.5;entryDx=0;entryDy=0;entryPerimeter=0;" edge="1" parent="1" target="FaSnawcas1gH10pwd9XZ-18">
          <mxGeometry width="50" height="50" relative="1" as="geometry">
            <mxPoint x="540" y="315" as="sourcePoint" />
            <mxPoint x="650" y="315" as="targetPoint" />
          </mxGeometry>
        </mxCell>
        <mxCell id="FaSnawcas1gH10pwd9XZ-17" value="" style="edgeStyle=orthogonalEdgeStyle;rounded=0;orthogonalLoop=1;jettySize=auto;html=1;" edge="1" parent="1" source="FaSnawcas1gH10pwd9XZ-15" target="FaSnawcas1gH10pwd9XZ-16">
          <mxGeometry relative="1" as="geometry" />
        </mxCell>
        <mxCell id="FaSnawcas1gH10pwd9XZ-15" value="Create Order" style="rounded=0;whiteSpace=wrap;html=1;" vertex="1" parent="1">
          <mxGeometry x="430" y="590" width="120" height="60" as="geometry" />
        </mxCell>
        <mxCell id="FaSnawcas1gH10pwd9XZ-16" value="Stop" style="ellipse;whiteSpace=wrap;html=1;" vertex="1" parent="1">
          <mxGeometry x="450" y="683" width="80" height="30" as="geometry" />
        </mxCell>
        <mxCell id="FaSnawcas1gH10pwd9XZ-18" value="&lt;font style=&quot;font-size: 13px;&quot;&gt;remainingLicenseDays&amp;gt;365&lt;/font&gt;" style="strokeWidth=2;html=1;shape=mxgraph.flowchart.decision;whiteSpace=wrap;" vertex="1" parent="1">
          <mxGeometry x="615" y="242.5" width="200" height="145" as="geometry" />
        </mxCell>
        <mxCell id="FaSnawcas1gH10pwd9XZ-20" value="YES" style="endArrow=classic;html=1;rounded=0;" edge="1" parent="1">
          <mxGeometry width="50" height="50" relative="1" as="geometry">
            <mxPoint x="714.5" y="387.5" as="sourcePoint" />
            <mxPoint x="714.5" y="457.5" as="targetPoint" />
          </mxGeometry>
        </mxCell>
        <mxCell id="FaSnawcas1gH10pwd9XZ-21" value="Create Order" style="rounded=0;whiteSpace=wrap;html=1;" vertex="1" parent="1">
          <mxGeometry x="655" y="457.5" width="120" height="60" as="geometry" />
        </mxCell>
        <mxCell id="FaSnawcas1gH10pwd9XZ-22" value="Stop" style="ellipse;whiteSpace=wrap;html=1;" vertex="1" parent="1">
          <mxGeometry x="675" y="550.5" width="80" height="30" as="geometry" />
        </mxCell>
        <mxCell id="FaSnawcas1gH10pwd9XZ-23" value="NO" style="endArrow=classic;html=1;rounded=0;" edge="1" parent="1">
          <mxGeometry width="50" height="50" relative="1" as="geometry">
            <mxPoint x="714.5" y="242.5" as="sourcePoint" />
            <mxPoint x="715" y="190" as="targetPoint" />
          </mxGeometry>
        </mxCell>
        <mxCell id="FaSnawcas1gH10pwd9XZ-24" value="" style="edgeStyle=orthogonalEdgeStyle;rounded=0;orthogonalLoop=1;jettySize=auto;html=1;" edge="1" parent="1">
          <mxGeometry relative="1" as="geometry">
            <mxPoint x="720" y="517.5" as="sourcePoint" />
            <mxPoint x="720" y="550.5" as="targetPoint" />
          </mxGeometry>
        </mxCell>
        <mxCell id="FaSnawcas1gH10pwd9XZ-31" value="NO" style="edgeStyle=orthogonalEdgeStyle;rounded=0;orthogonalLoop=1;jettySize=auto;html=1;" edge="1" parent="1" source="FaSnawcas1gH10pwd9XZ-29" target="FaSnawcas1gH10pwd9XZ-30">
          <mxGeometry relative="1" as="geometry" />
        </mxCell>
        <mxCell id="FaSnawcas1gH10pwd9XZ-33" value="YES" style="edgeStyle=orthogonalEdgeStyle;rounded=0;orthogonalLoop=1;jettySize=auto;html=1;" edge="1" parent="1" source="FaSnawcas1gH10pwd9XZ-29" target="FaSnawcas1gH10pwd9XZ-32">
          <mxGeometry relative="1" as="geometry" />
        </mxCell>
        <mxCell id="FaSnawcas1gH10pwd9XZ-29" value="amount &amp;lt; balance" style="strokeWidth=2;html=1;shape=mxgraph.flowchart.decision;whiteSpace=wrap;fontSize=11;" vertex="1" parent="1">
          <mxGeometry x="665" y="100" width="100" height="100" as="geometry" />
        </mxCell>
        <mxCell id="FaSnawcas1gH10pwd9XZ-30" value="Error" style="ellipse;whiteSpace=wrap;html=1;" vertex="1" parent="1">
          <mxGeometry x="500" y="135" width="80" height="30" as="geometry" />
        </mxCell>
        <mxCell id="FaSnawcas1gH10pwd9XZ-35" value="" style="edgeStyle=orthogonalEdgeStyle;rounded=0;orthogonalLoop=1;jettySize=auto;html=1;" edge="1" parent="1" source="FaSnawcas1gH10pwd9XZ-32" target="FaSnawcas1gH10pwd9XZ-34">
          <mxGeometry relative="1" as="geometry" />
        </mxCell>
        <mxCell id="FaSnawcas1gH10pwd9XZ-32" value="Create Order" style="rounded=0;whiteSpace=wrap;html=1;" vertex="1" parent="1">
          <mxGeometry x="655" y="10" width="120" height="60" as="geometry" />
        </mxCell>
        <mxCell id="FaSnawcas1gH10pwd9XZ-34" value="Stop" style="ellipse;whiteSpace=wrap;html=1;" vertex="1" parent="1">
          <mxGeometry x="530" y="25" width="80" height="30" as="geometry" />
        </mxCell>
        <mxCell id="FaSnawcas1gH10pwd9XZ-38" value="" style="edgeStyle=orthogonalEdgeStyle;rounded=0;orthogonalLoop=1;jettySize=auto;html=1;" edge="1" parent="1" source="FaSnawcas1gH10pwd9XZ-36" target="FaSnawcas1gH10pwd9XZ-37">
          <mxGeometry relative="1" as="geometry" />
        </mxCell>
        <mxCell id="FaSnawcas1gH10pwd9XZ-36" value="Create Order" style="rounded=0;whiteSpace=wrap;html=1;" vertex="1" parent="1">
          <mxGeometry x="250" y="120" width="120" height="60" as="geometry" />
        </mxCell>
        <mxCell id="FaSnawcas1gH10pwd9XZ-37" value="Stop" style="ellipse;whiteSpace=wrap;html=1;" vertex="1" parent="1">
          <mxGeometry x="270" y="55" width="80" height="30" as="geometry" />
        </mxCell>
        <mxCell id="FaSnawcas1gH10pwd9XZ-41" value="YES" style="edgeStyle=orthogonalEdgeStyle;rounded=0;orthogonalLoop=1;jettySize=auto;html=1;" edge="1" parent="1" source="FaSnawcas1gH10pwd9XZ-39" target="FaSnawcas1gH10pwd9XZ-15">
          <mxGeometry relative="1" as="geometry" />
        </mxCell>
        <mxCell id="FaSnawcas1gH10pwd9XZ-43" value="NO" style="edgeStyle=orthogonalEdgeStyle;rounded=0;orthogonalLoop=1;jettySize=auto;html=1;" edge="1" parent="1" source="FaSnawcas1gH10pwd9XZ-39" target="FaSnawcas1gH10pwd9XZ-42">
          <mxGeometry relative="1" as="geometry" />
        </mxCell>
        <mxCell id="FaSnawcas1gH10pwd9XZ-39" value="amount &amp;lt; balance" style="strokeWidth=2;html=1;shape=mxgraph.flowchart.decision;whiteSpace=wrap;fontSize=11;" vertex="1" parent="1">
          <mxGeometry x="440" y="422" width="100" height="100" as="geometry" />
        </mxCell>
        <mxCell id="FaSnawcas1gH10pwd9XZ-42" value="Error" style="ellipse;whiteSpace=wrap;html=1;" vertex="1" parent="1">
          <mxGeometry x="270" y="457" width="80" height="30" as="geometry" />
        </mxCell>
      </root>
    </mxGraphModel>
  </diagram>
</mxfile>
